<svg width="27" height="32" viewBox="0 0 27 32" fill="none" xmlns="http://www.w3.org/2000/svg">
<path d="M11.601 25.6751L26.46 16.7787C26.703 16.6388 27 16.816 27 17.1051L27 23.4929C27 23.8566 26.811 24.183 26.514 24.3695L13.986 31.8671C13.689 32.0443 13.311 32.0443 13.014 31.8671L9.738 29.9088L9.738 29.8995L5.688 27.4749L5.688 27.4842L2.691 25.6937C0.234 24.2203 0.0810014 20.5648 2.448 18.9422C2.502 18.9048 2.547 18.8769 2.601 18.8396L18.711 9.18782C18.72 9.17849 18.738 9.16917 18.747 9.15984C20.637 8.01282 20.61 5.17791 18.711 4.04022L17.262 3.17296C17.199 4.47851 16.506 5.67215 15.399 6.32493L0.54 15.212C0.297 15.3519 4.98983e-07 15.1747 5.1162e-07 14.8856L7.90435e-07 8.50706C8.06332e-07 8.14338 0.189 7.81699 0.486 7.63048L13.014 0.132886C13.311 -0.0442961 13.689 -0.0442961 13.986 0.132886L15.435 1.00015L22.815 5.41104L24.39 6.36223C26.847 7.83564 26.964 11.5192 24.543 13.0765C24.498 13.1045 24.444 13.1418 24.399 13.1697L8.28 22.8122C8.271 22.8215 8.253 22.8308 8.244 22.8402C6.363 23.9872 6.39 26.8221 8.28 27.9505L9.738 28.827C9.81 27.5122 10.503 26.3278 11.601 25.6751Z" fill="#01C064"/>
</svg>
