<svg width="20" height="21" viewBox="0 0 20 21" fill="none" xmlns="http://www.w3.org/2000/svg">
<path d="M9.16663 3.8332H5.66663C4.26649 3.8332 3.56643 3.8332 3.03165 4.10568C2.56124 4.34536 2.17879 4.72782 1.93911 5.19822C1.66663 5.733 1.66663 6.43307 1.66663 7.8332V14.8332C1.66663 16.2333 1.66663 16.9334 1.93911 17.4682C2.17879 17.9386 2.56124 18.321 3.03165 18.5607C3.56643 18.8332 4.26649 18.8332 5.66663 18.8332H12.6666C14.0668 18.8332 14.7668 18.8332 15.3016 18.5607C15.772 18.321 16.1545 17.9386 16.3941 17.4682C16.6666 16.9334 16.6666 16.2333 16.6666 14.8332V11.3332M6.6666 13.8332H8.06206C8.46971 13.8332 8.67353 13.8332 8.86535 13.7871C9.03541 13.7463 9.19798 13.679 9.3471 13.5876C9.5153 13.4845 9.65942 13.3404 9.94767 13.0521L17.9166 5.0832C18.607 4.39284 18.607 3.27355 17.9166 2.5832C17.2263 1.89284 16.107 1.89284 15.4166 2.5832L7.44765 10.5521C7.1594 10.8404 7.01527 10.9845 6.9122 11.1527C6.82082 11.3018 6.75348 11.4644 6.71265 11.6345C6.6666 11.8263 6.6666 12.0301 6.6666 12.4378V13.8332Z" stroke="#55606D" stroke-width="2" stroke-linecap="round" stroke-linejoin="round"/>
</svg>
