<svg width="20" height="21" viewBox="0 0 20 21" fill="none" xmlns="http://www.w3.org/2000/svg">
<path d="M2.01677 11.0942C1.90328 10.9145 1.84654 10.8246 1.81477 10.686C1.79091 10.5819 1.79091 10.4178 1.81477 10.3137C1.84654 10.1751 1.90328 10.0852 2.01677 9.90552C2.95461 8.42054 5.74617 4.6665 10.0003 4.6665C14.2545 4.6665 17.0461 8.42054 17.9839 9.90552C18.0974 10.0852 18.1541 10.1751 18.1859 10.3137C18.2098 10.4178 18.2098 10.5819 18.1859 10.686C18.1541 10.8246 18.0974 10.9145 17.9839 11.0942C17.0461 12.5791 14.2545 16.3332 10.0003 16.3332C5.74617 16.3332 2.95461 12.5791 2.01677 11.0942Z" stroke="#55606D" stroke-width="1.66667" stroke-linecap="round" stroke-linejoin="round"/>
<path d="M10.0003 12.9998C11.381 12.9998 12.5003 11.8805 12.5003 10.4998C12.5003 9.11913 11.381 7.99984 10.0003 7.99984C8.61962 7.99984 7.50034 9.11913 7.50034 10.4998C7.50034 11.8805 8.61962 12.9998 10.0003 12.9998Z" stroke="#55606D" stroke-width="1.66667" stroke-linecap="round" stroke-linejoin="round"/>
</svg>
