<svg width="20" height="21" viewBox="0 0 20 21" fill="none" xmlns="http://www.w3.org/2000/svg">
<path d="M10.8334 4.66683C10.8334 4.20659 10.4603 3.8335 10 3.8335C9.5398 3.8335 9.16671 4.20659 9.16671 4.66683V9.66683H4.16671C3.70647 9.66683 3.33337 10.0399 3.33337 10.5002C3.33337 10.9604 3.70647 11.3335 4.16671 11.3335H9.16671V16.3335C9.16671 16.7937 9.5398 17.1668 10 17.1668C10.4603 17.1668 10.8334 16.7937 10.8334 16.3335V11.3335H15.8334C16.2936 11.3335 16.6667 10.9604 16.6667 10.5002C16.6667 10.0399 16.2936 9.66683 15.8334 9.66683H10.8334V4.66683Z" fill="#55606D"/>
</svg>
