<svg width="16" height="16" viewBox="0 0 16 16" fill="none" xmlns="http://www.w3.org/2000/svg">
<path d="M7.40253 1.3778C7.59461 0.988688 7.69064 0.79413 7.82102 0.731969C7.93445 0.677885 8.06623 0.677885 8.17966 0.731969C8.31004 0.79413 8.40607 0.988688 8.59814 1.3778L10.4204 5.06944C10.4771 5.18432 10.5054 5.24176 10.5469 5.28635C10.5836 5.32584 10.6276 5.35783 10.6764 5.38056C10.7316 5.40623 10.795 5.41549 10.9218 5.43402L14.9978 6.0298C15.427 6.09253 15.6417 6.1239 15.741 6.22874C15.8274 6.31995 15.868 6.44529 15.8516 6.56985C15.8327 6.71302 15.6773 6.86436 15.3666 7.16702L12.4182 10.0387C12.3263 10.1282 12.2803 10.173 12.2507 10.2263C12.2244 10.2734 12.2076 10.3252 12.2011 10.3788C12.1937 10.4393 12.2046 10.5025 12.2263 10.629L12.922 14.6851C12.9953 15.1129 13.032 15.3269 12.9631 15.4538C12.9031 15.5642 12.7965 15.6417 12.6729 15.6646C12.5308 15.6909 12.3388 15.5899 11.9546 15.3879L8.31064 13.4716C8.1971 13.4119 8.14034 13.382 8.08053 13.3703C8.02757 13.3599 7.97311 13.3599 7.92015 13.3703C7.86034 13.382 7.80358 13.4119 7.69004 13.4716L4.0461 15.3879C3.66192 15.5899 3.46984 15.6909 3.3278 15.6646C3.20423 15.6417 3.09759 15.5642 3.03761 15.4538C2.96866 15.3269 3.00535 15.1129 3.07872 14.6851L3.7744 10.629C3.79609 10.5025 3.80693 10.4393 3.79959 10.3788C3.7931 10.3252 3.77625 10.2734 3.75 10.2263C3.72034 10.173 3.67439 10.1282 3.58248 10.0387L0.634125 7.16702C0.323378 6.86436 0.168004 6.71302 0.149097 6.56985C0.132647 6.44529 0.173287 6.31995 0.259701 6.22874C0.359022 6.1239 0.573635 6.09253 1.00286 6.0298L5.07892 5.43402C5.20568 5.41549 5.26906 5.40623 5.32426 5.38056C5.37313 5.35783 5.41713 5.32584 5.45381 5.28635C5.49525 5.24176 5.5236 5.18432 5.5803 5.06944L7.40253 1.3778Z" fill="#FFD859"/>
</svg>
