<svg width="20" height="18" viewBox="0 0 20 18" fill="none" xmlns="http://www.w3.org/2000/svg">
<path d="M10.7602 13.1667H16.7385M10.7602 13.1667L9.16602 16.5M10.7602 13.1667L13.1479 8.17419C13.3403 7.77189 13.4365 7.57075 13.5682 7.50718C13.6826 7.4519 13.8161 7.4519 13.9305 7.50718C14.0622 7.57075 14.1584 7.77189 14.3508 8.17419L16.7385 13.1667M16.7385 13.1667L18.3327 16.5M1.66602 3.16667H6.66602M6.66602 3.16667H9.58268M6.66602 3.16667V1.5M9.58268 3.16667H11.666M9.58268 3.16667C9.16923 5.63107 8.20984 7.86349 6.80397 9.73702M8.33268 10.6667C7.82224 10.4373 7.30156 10.1184 6.80397 9.73702M6.80397 9.73702C5.67687 8.87314 4.66832 7.68886 4.16602 6.5M6.80397 9.73702C5.46673 11.5191 3.72554 12.9765 1.66602 14" stroke="#55606D" stroke-width="1.5" stroke-linecap="round" stroke-linejoin="round"/>
</svg>
