<svg width="20" height="20" viewBox="0 0 20 20" fill="none" xmlns="http://www.w3.org/2000/svg">
<path d="M10.7602 14.1667H16.7385M10.7602 14.1667L9.16602 17.5M10.7602 14.1667L13.1479 9.17419C13.3403 8.77189 13.4365 8.57075 13.5682 8.50718C13.6826 8.4519 13.8161 8.4519 13.9305 8.50718C14.0622 8.57075 14.1584 8.77189 14.3508 9.17419L16.7385 14.1667M16.7385 14.1667L18.3327 17.5M1.66602 4.16667H6.66602M6.66602 4.16667H9.58268M6.66602 4.16667V2.5M9.58268 4.16667H11.666M9.58268 4.16667C9.16923 6.63107 8.20984 8.86349 6.80397 10.737M8.33268 11.6667C7.82224 11.4373 7.30156 11.1184 6.80397 10.737M6.80397 10.737C5.67687 9.87314 4.66832 8.68886 4.16602 7.5M6.80397 10.737C5.46673 12.5191 3.72554 13.9765 1.66602 15" stroke="#55606D" stroke-width="1.5" stroke-linecap="round" stroke-linejoin="round"/>
</svg>
