<svg width="46" height="46" viewBox="0 0 46 46" fill="none" xmlns="http://www.w3.org/2000/svg">
<rect x="3" y="3" width="40" height="40" rx="20" fill="#F2F4F7"/>
<rect x="3" y="3" width="40" height="40" rx="20" stroke="#F9FAFB" stroke-width="6"/>
<path fill-rule="evenodd" clip-rule="evenodd" d="M23.0007 13.8335C17.938 13.8335 13.834 17.9376 13.834 23.0002C13.834 28.0628 17.938 32.1668 23.0007 32.1668C28.0633 32.1668 32.1673 28.0628 32.1673 23.0002C32.1673 17.9376 28.0633 13.8335 23.0007 13.8335ZM19.0781 22.4109L22.4114 19.0776C22.7368 18.7521 23.2645 18.7521 23.5899 19.0776L26.9232 22.4109C27.2487 22.7363 27.2487 23.264 26.9232 23.5894C26.5978 23.9149 26.0702 23.9149 25.7447 23.5894L23.834 21.6787V26.3335C23.834 26.7937 23.4609 27.1668 23.0007 27.1668C22.5404 27.1668 22.1673 26.7937 22.1673 26.3335V21.6787L20.2566 23.5894C19.9311 23.9149 19.4035 23.9149 19.0781 23.5894C18.7526 23.264 18.7526 22.7363 19.0781 22.4109Z" fill="#171F30"/>
</svg>
